<svg width="40" height="40" viewBox="0 0 40 40" fill="none" xmlns="http://www.w3.org/2000/svg">
<rect width="40" height="40" rx="4" fill="#03294F"/>
<path d="M17.7446 15.244C17.5884 15.4003 17.5007 15.6122 17.5007 15.8332C17.5007 16.0541 17.5884 16.266 17.7446 16.4223L21.3221 19.9998L17.7446 23.5773C17.665 23.6542 17.6016 23.7461 17.5579 23.8478C17.5142 23.9495 17.4912 24.0588 17.4903 24.1695C17.4893 24.2801 17.5104 24.3899 17.5523 24.4923C17.5942 24.5947 17.6561 24.6877 17.7343 24.766C17.8126 24.8442 17.9056 24.9061 18.008 24.948C18.1104 24.9899 18.2202 25.011 18.3308 25.01C18.4415 25.0091 18.5508 24.9861 18.6525 24.9424C18.7541 24.8987 18.8461 24.8352 18.923 24.7557L23.0896 20.589C23.2459 20.4327 23.3336 20.2208 23.3336 19.9998C23.3336 19.7789 23.2459 19.5669 23.0896 19.4107L18.923 15.244C18.7667 15.0878 18.5548 15 18.3338 15C18.1128 15 17.9009 15.0878 17.7446 15.244Z" fill="white"/>
</svg>
