<svg width="40" height="40" viewBox="0 0 40 40" fill="none" xmlns="http://www.w3.org/2000/svg">
<rect x="40" y="40" width="40" height="40" rx="4" transform="rotate(180 40 40)" fill="#03294F"/>
<path d="M22.2554 24.756C22.4116 24.5997 22.4993 24.3878 22.4993 24.1668C22.4993 23.9459 22.4116 23.734 22.2554 23.5777L18.6779 20.0002L22.2554 16.4227C22.335 16.3458 22.3984 16.2539 22.4421 16.1522C22.4858 16.0505 22.5088 15.9412 22.5097 15.8305C22.5107 15.7199 22.4896 15.6101 22.4477 15.5077C22.4058 15.4053 22.3439 15.3123 22.2657 15.234C22.1874 15.1558 22.0944 15.0939 21.992 15.052C21.8896 15.0101 21.7798 14.989 21.6692 14.99C21.5585 14.9909 21.4492 15.0139 21.3475 15.0576C21.2459 15.1013 21.1539 15.1648 21.077 15.2443L16.9104 19.411C16.7541 19.5673 16.6664 19.7792 16.6664 20.0002C16.6664 20.2211 16.7541 20.4331 16.9104 20.5893L21.077 24.756C21.2333 24.9122 21.4452 25 21.6662 25C21.8872 25 22.0991 24.9122 22.2554 24.756Z" fill="white"/>
</svg>
