<svg width="16" height="16" viewBox="0 0 16 16" fill="none" xmlns="http://www.w3.org/2000/svg">
<g clip-path="url(#clip0_5_74)">
<path d="M5.33398 9.3335C7.54312 9.3335 9.33398 7.54264 9.33398 5.3335C9.33398 3.12436 7.54312 1.3335 5.33398 1.3335C3.12485 1.3335 1.33398 3.12436 1.33398 5.3335C1.33398 7.54264 3.12485 9.3335 5.33398 9.3335Z" stroke="#717171" stroke-width="1.33333" stroke-linecap="round" stroke-linejoin="round"/>
<path d="M12.0592 6.91357C12.6895 7.14853 13.2502 7.53859 13.6897 8.04771C14.1293 8.55682 14.4333 9.16854 14.5737 9.82629C14.7142 10.484 14.6865 11.1666 14.4933 11.8108C14.3 12.455 13.9475 13.0401 13.4682 13.512C12.9889 13.9838 12.3984 14.3272 11.7512 14.5104C11.1041 14.6936 10.4212 14.7106 9.7657 14.5599C9.11022 14.4092 8.50332 14.0956 8.00113 13.6482C7.49894 13.2008 7.11767 12.634 6.89258 12.0002" stroke="#717171" stroke-width="1.33333" stroke-linecap="round" stroke-linejoin="round"/>
<path d="M4.66602 4H5.33268V6.66667" stroke="#717171" stroke-width="1.33333" stroke-linecap="round" stroke-linejoin="round"/>
<path d="M11.1399 9.25342L11.6066 9.72675L9.72656 11.6068" stroke="#717171" stroke-width="1.33333" stroke-linecap="round" stroke-linejoin="round"/>
</g>
<defs>
<clipPath id="clip0_5_74">
<rect width="16" height="16" fill="white"/>
</clipPath>
</defs>
</svg>
