<svg width="16" height="16" viewBox="0 0 16 16" fill="none" xmlns="http://www.w3.org/2000/svg">
<path d="M8.00065 8.66683C8.36884 8.66683 8.66732 8.36835 8.66732 8.00016C8.66732 7.63197 8.36884 7.3335 8.00065 7.3335C7.63246 7.3335 7.33398 7.63197 7.33398 8.00016C7.33398 8.36835 7.63246 8.66683 8.00065 8.66683Z" stroke="#0B0B0B" stroke-width="1.33333" stroke-linecap="round" stroke-linejoin="round"/>
<path d="M12.6667 8.66683C13.0349 8.66683 13.3333 8.36835 13.3333 8.00016C13.3333 7.63197 13.0349 7.3335 12.6667 7.3335C12.2985 7.3335 12 7.63197 12 8.00016C12 8.36835 12.2985 8.66683 12.6667 8.66683Z" stroke="#0B0B0B" stroke-width="1.33333" stroke-linecap="round" stroke-linejoin="round"/>
<path d="M3.33268 8.66683C3.70087 8.66683 3.99935 8.36835 3.99935 8.00016C3.99935 7.63197 3.70087 7.3335 3.33268 7.3335C2.96449 7.3335 2.66602 7.63197 2.66602 8.00016C2.66602 8.36835 2.96449 8.66683 3.33268 8.66683Z" stroke="#0B0B0B" stroke-width="1.33333" stroke-linecap="round" stroke-linejoin="round"/>
</svg>
