<svg width="32" height="32" viewBox="0 0 32 32" fill="none" xmlns="http://www.w3.org/2000/svg">
<path d="M20.0007 2.6665H8.00065C7.29341 2.6665 6.61513 2.94746 6.11503 3.44755C5.61494 3.94765 5.33398 4.62593 5.33398 5.33317V26.6665C5.33398 27.3737 5.61494 28.052 6.11503 28.5521C6.61513 29.0522 7.29341 29.3332 8.00065 29.3332H24.0007C24.7079 29.3332 25.3862 29.0522 25.8863 28.5521C26.3864 28.052 26.6673 27.3737 26.6673 26.6665V9.33317L20.0007 2.6665Z" stroke="#03294F" stroke-width="2.66667" stroke-linecap="round" stroke-linejoin="round"/>
<path d="M18.666 2.6665V7.99984C18.666 8.70708 18.947 9.38536 19.4471 9.88546C19.9472 10.3856 20.6254 10.6665 21.3327 10.6665H26.666" stroke="#03294F" stroke-width="2.66667" stroke-linecap="round" stroke-linejoin="round"/>
<path d="M13.3327 12H10.666" stroke="#03294F" stroke-width="2.66667" stroke-linecap="round" stroke-linejoin="round"/>
<path d="M21.3327 17.3335H10.666" stroke="#03294F" stroke-width="2.66667" stroke-linecap="round" stroke-linejoin="round"/>
<path d="M21.3327 22.6665H10.666" stroke="#03294F" stroke-width="2.66667" stroke-linecap="round" stroke-linejoin="round"/>
</svg>
