<svg width="20" height="20" viewBox="0 0 20 20" fill="none" xmlns="http://www.w3.org/2000/svg">
<path d="M16.6654 10.8334C16.6654 15 13.7487 17.0834 10.282 18.2917C10.1005 18.3532 9.90331 18.3503 9.7237 18.2834C6.2487 17.0834 3.33203 15 3.33203 10.8334V5.00003C3.33203 4.77902 3.41983 4.56705 3.57611 4.41077C3.73239 4.25449 3.94435 4.1667 4.16536 4.1667C5.83203 4.1667 7.91536 3.1667 9.36536 1.90003C9.54191 1.74919 9.76649 1.66632 9.9987 1.66632C10.2309 1.66632 10.4555 1.74919 10.632 1.90003C12.0904 3.17503 14.1654 4.1667 15.832 4.1667C16.053 4.1667 16.265 4.25449 16.4213 4.41077C16.5776 4.56705 16.6654 4.77902 16.6654 5.00003V10.8334Z" stroke="#717171" stroke-linecap="round" stroke-linejoin="round"/>
</svg>
