<svg width="16" height="16" viewBox="0 0 16 16" fill="none" xmlns="http://www.w3.org/2000/svg">
<path d="M8 11.3335V14.6668" stroke="#03294F" stroke-width="1.33333" stroke-linecap="round" stroke-linejoin="round"/>
<path d="M3.33398 11.3335H12.6673V10.1602C12.6672 9.91211 12.5979 9.66901 12.4671 9.45819C12.3364 9.24738 12.1495 9.07721 11.9273 8.96683L10.7407 8.36683C10.5185 8.25644 10.3316 8.08628 10.2008 7.87547C10.0701 7.66465 10.0008 7.42155 10.0007 7.1735V4.00016H10.6673C11.0209 4.00016 11.3601 3.85969 11.6101 3.60964C11.8602 3.35959 12.0007 3.02045 12.0007 2.66683C12.0007 2.31321 11.8602 1.97407 11.6101 1.72402C11.3601 1.47397 11.0209 1.3335 10.6673 1.3335H5.33398C4.98036 1.3335 4.64122 1.47397 4.39118 1.72402C4.14113 1.97407 4.00065 2.31321 4.00065 2.66683C4.00065 3.02045 4.14113 3.35959 4.39118 3.60964C4.64122 3.85969 4.98036 4.00016 5.33398 4.00016H6.00065V7.1735C6.00052 7.42155 5.93119 7.66465 5.80046 7.87547C5.66974 8.08628 5.48279 8.25644 5.26065 8.36683L4.07398 8.96683C3.85184 9.07721 3.6649 9.24738 3.53417 9.45819C3.40344 9.66901 3.33412 9.91211 3.33398 10.1602V11.3335Z" fill="#03294F" stroke="#03294F" stroke-width="1.33333" stroke-linecap="round" stroke-linejoin="round"/>
</svg>
